<?xml version="1.0" standalone="no"?>
<!DOCTYPE svg PUBLIC "-//W3C//DTD SVG 20010904//EN"
 "http://www.w3.org/TR/2001/REC-SVG-20010904/DTD/svg10.dtd">
<svg version="1.0" xmlns="http://www.w3.org/2000/svg"
 width="460.000000pt" height="460.000000pt" viewBox="0 0 460.000000 460.000000"
 preserveAspectRatio="xMidYMid meet">

<g transform="translate(0.000000,460.000000) scale(0.100000,-0.100000)"
fill="#000000" stroke="none">
<path d="M2110 3954 c-95 -11 -236 -62 -306 -109 -20 -14 -40 -25 -44 -25 -5
0 -32 -30 -61 -67 -54 -69 -88 -144 -89 -197 0 -21 -11 -40 -39 -65 -21 -20
-51 -61 -67 -91 -28 -54 -29 -58 -29 -215 1 -169 3 -184 57 -309 l30 -68 -23
-24 c-23 -25 -37 -102 -25 -148 9 -38 62 -93 101 -106 l35 -12 0 -171 c0 -158
8 -251 25 -318 6 -25 4 -27 -92 -58 -105 -34 -166 -66 -225 -115 -20 -17 -51
-42 -68 -55 -31 -23 -39 -33 -113 -144 -72 -108 -117 -275 -117 -434 0 -80 0
-82 34 -110 l33 -28 6 -215 c5 -240 11 -268 76 -350 59 -74 92 -95 173 -110
28 -6 60 -18 71 -28 18 -16 11 -17 -159 -22 l-179 -5 0 -25 0 -25 1166 -3
c1237 -2 1200 -3 1183 42 -5 14 -27 16 -152 16 -142 0 -146 1 -127 18 11 10
49 24 84 31 69 13 116 44 169 110 52 64 62 124 62 358 l0 208 35 19 c45 24 49
42 43 180 -4 86 -12 129 -33 189 -94 271 -262 434 -528 511 -46 13 -57 20 -53
34 17 55 26 168 26 323 l0 175 49 23 c61 27 85 70 85 153 1 44 -5 64 -23 89
l-23 31 20 47 c69 153 87 375 42 509 -23 70 -49 108 -96 139 -17 11 -23 28
-29 77 -7 74 -23 105 -87 180 -54 62 -170 130 -283 166 -62 20 -94 23 -285 25
-118 2 -231 1 -250 -1z m7 -659 c130 -45 312 -43 420 6 65 29 99 24 169 -24
130 -89 197 -203 211 -358 l6 -66 -39 -27 -38 -26 -31 29 c-45 43 -68 52 -158
58 -95 6 -191 -9 -228 -36 -26 -20 -27 -20 -67 0 -40 20 -41 20 -79 1 l-38
-20 -41 24 c-31 18 -62 25 -130 30 -116 8 -193 -7 -240 -48 l-35 -31 -39 18
c-47 21 -54 37 -44 113 9 77 39 156 80 209 19 25 34 48 34 52 0 7 48 43 139
103 35 24 61 23 148 -7z m20 -480 c93 -28 112 -84 66 -199 -26 -64 -32 -71
-83 -98 -44 -24 -64 -29 -100 -25 -86 8 -156 78 -180 179 -20 80 6 115 110
151 31 11 138 6 187 -8z m582 -1 c52 -15 91 -55 91 -95 0 -30 -40 -143 -58
-162 -26 -29 -107 -67 -144 -67 -48 0 -119 41 -151 88 -36 53 -53 142 -35 180
29 61 183 90 297 56z m-358 -54 c9 -19 26 -71 38 -115 25 -90 54 -128 127
-165 60 -29 132 -25 197 13 39 23 52 40 82 101 19 40 35 87 35 104 0 23 8 36
31 52 16 12 32 21 34 18 4 -4 -29 -145 -41 -173 -19 -44 -99 -173 -133 -215
-43 -54 -111 -120 -123 -120 -4 0 -27 14 -50 30 -22 17 -45 30 -49 30 -4 0
-19 4 -33 9 -23 9 -24 12 -14 45 9 27 8 39 -2 51 -21 25 -39 17 -50 -24 -12
-45 -51 -81 -87 -81 -29 0 -83 50 -83 78 0 25 -25 46 -46 38 -13 -5 -16 -16
-11 -52 l5 -46 -57 -25 c-31 -14 -64 -34 -74 -44 -18 -19 -19 -19 -60 13 -23
18 -45 37 -49 43 -3 5 -31 41 -61 79 -31 38 -58 80 -62 95 -4 14 -13 33 -20
41 -16 18 -70 153 -78 198 -8 38 3 41 51 12 22 -14 32 -27 32 -44 0 -14 6 -48
12 -78 21 -91 118 -168 210 -168 50 0 122 30 154 65 29 31 69 119 79 170 4 22
13 55 21 73 18 45 52 41 75 -8z m-711 -15 c0 -41 -2 -45 -25 -45 -16 0 -25 -6
-25 -15 0 -9 11 -20 25 -25 20 -8 25 -16 25 -45 0 -33 -1 -34 -24 -24 -25 12
-56 67 -56 100 0 40 42 97 73 99 4 0 7 -20 7 -45z m1385 10 c39 -38 35 -95
-10 -143 l-34 -37 -1 38 c0 31 4 39 25 47 14 5 25 16 25 25 0 9 -9 15 -25 15
-22 0 -25 4 -25 40 0 46 11 50 45 15z m-1325 -878 c-4 -5 -27 -11 -51 -13 -23
-2 -53 -11 -65 -19 -13 -8 -30 -15 -38 -15 -19 0 -27 25 -13 39 8 8 8 11 -1
11 -12 0 -16 -11 -13 -41 2 -17 -20 -39 -41 -43 -7 -1 -19 -5 -27 -10 -8 -5
-17 -3 -23 5 -8 11 -9 10 -4 -3 6 -21 -47 -63 -69 -54 -8 3 -14 0 -12 -7 1 -7
-4 -11 -11 -9 -8 1 -11 -2 -8 -7 4 -5 -9 -26 -28 -46 -19 -20 -37 -42 -40 -50
-3 -8 -10 -15 -16 -15 -6 0 -8 5 -4 12 4 7 3 8 -4 4 -7 -4 -12 -16 -12 -27 0
-10 -4 -19 -8 -19 -5 0 -17 -18 -27 -40 -10 -22 -20 -38 -22 -36 -6 5 23 69
53 117 13 20 20 40 17 43 -4 3 -1 6 5 6 7 0 12 7 12 16 0 9 12 20 28 26 15 6
38 28 52 50 26 41 55 64 86 70 10 2 31 15 46 30 14 15 39 30 55 34 15 4 34 11
41 17 8 6 12 5 12 -4 0 -11 2 -11 9 -1 4 8 19 11 35 8 15 -3 24 -1 21 5 -4 5
-12 6 -18 3 -7 -4 -8 -3 -4 1 14 16 37 14 37 -3 0 -13 4 -11 18 6 l17 22 12
-28 c6 -15 8 -31 3 -35z m1350 28 c0 4 7 2 15 -5 8 -7 15 -9 15 -6 0 4 13 -1
29 -10 17 -10 28 -21 25 -26 -3 -4 2 -5 10 -2 9 3 16 1 16 -6 0 -6 5 -8 12 -4
7 5 9 2 5 -8 -4 -11 -1 -14 12 -11 16 4 121 -84 121 -102 0 -9 -27 12 -52 38
-9 10 -18 17 -20 15 -2 -2 -21 8 -43 22 -39 23 -86 40 -172 61 -32 8 -43 16
-43 30 0 10 5 19 11 19 5 0 7 -6 3 -12 -4 -7 1 -5 11 4 14 13 22 15 32 6 7 -6
13 -7 13 -3z m7 -486 c38 -14 83 -57 99 -96 11 -26 14 -114 14 -428 0 -474 5
-453 -97 -457 -42 -2 -68 -8 -71 -15 -2 -9 11 -13 47 -13 28 0 51 -4 51 -10 0
-5 -24 -16 -53 -25 -46 -13 -147 -15 -758 -13 l-705 3 -49 25 c-87 44 -85 35
-86 501 -1 415 1 440 39 483 9 10 35 27 57 37 38 17 83 19 762 19 486 0 731
-3 750 -11z m-1677 -626 c0 -159 3 -298 6 -310 10 -35 -16 -29 -87 20 -92 63
-106 103 -115 323 -3 92 -3 187 1 211 l6 43 95 0 94 0 0 -287z m2055 244 c4
-24 5 -120 3 -213 -3 -146 -6 -175 -24 -215 -33 -71 -124 -149 -174 -149 -11
0 -14 528 -4 588 l6 32 94 0 93 0 6 -43z"/>
<path d="M2007 3116 c-49 -18 -149 -105 -162 -140 -6 -18 -6 -33 1 -43 21 -33
40 -38 96 -23 29 8 96 15 148 15 105 0 131 9 155 55 22 42 19 85 -9 117 -23
26 -30 28 -108 31 -53 1 -97 -3 -121 -12z"/>
<path d="M2426 3107 c-35 -35 -42 -85 -18 -128 27 -49 55 -61 129 -54 42 5 89
1 148 -12 l87 -18 19 24 c10 13 19 31 19 41 0 25 -63 94 -122 131 -47 30 -60
34 -144 37 -88 4 -94 3 -118 -21z"/>
<path d="M2100 2605 c-7 -8 -8 -15 -2 -15 5 0 15 7 22 15 7 8 8 15 2 15 -5 0
-15 -7 -22 -15z"/>
<path d="M2680 2615 c-13 -14 -21 -28 -18 -31 12 -11 48 17 48 36 0 25 -2 25
-30 -5z"/>
<path d="M3086 1871 c-3 -4 6 -7 19 -7 14 0 22 2 19 5 -8 8 -34 10 -38 2z"/>
<path d="M1754 1281 c-16 -4 -53 -20 -81 -36 -41 -22 -58 -39 -82 -85 -43 -80
-49 -148 -21 -223 27 -71 57 -108 118 -143 40 -23 58 -27 122 -27 93 1 112 8
183 73 68 62 81 100 75 211 -4 68 -9 82 -39 124 -57 80 -185 129 -275 106z
m141 -42 c47 -13 67 -29 107 -88 41 -58 50 -103 37 -170 -22 -109 -149 -203
-252 -187 -75 12 -163 78 -186 139 -6 16 -11 61 -11 100 0 57 5 80 23 109 56
91 165 129 282 97z"/>
<path d="M1879 1103 c-2 -24 -2 -25 -6 -5 -2 12 -10 22 -17 22 -18 0 -29 -72
-14 -81 15 -9 -7 -39 -28 -39 -8 0 -19 -11 -24 -25 -19 -51 -74 -22 -68 37 3
32 4 33 46 30 45 -4 56 10 23 28 -50 26 -111 -6 -111 -59 0 -34 35 -91 57 -92
57 -4 79 9 88 52 7 33 25 39 25 9 0 -32 30 -24 31 8 1 16 3 20 6 10 6 -24 33
-23 33 1 0 11 5 23 11 26 6 5 4 12 -8 20 -15 11 -16 15 -3 31 12 13 12 18 3
21 -7 3 -13 11 -13 19 0 27 -30 15 -31 -13z"/>
<path d="M2650 994 c-101 -63 -117 -210 -42 -382 32 -75 34 -76 175 -70 155 5
233 50 266 151 18 55 6 100 -39 148 -37 39 -41 41 -89 38 l-49 -4 -6 36 c-4
25 -17 47 -41 68 -31 27 -43 31 -93 31 -34 0 -67 -7 -82 -16z m148 -35 c32
-30 36 -43 32 -106 -2 -37 7 -40 52 -17 86 44 163 -45 129 -149 -20 -60 -109
-106 -222 -114 -106 -8 -125 -1 -149 50 -30 65 -52 174 -44 221 8 48 57 124
87 136 44 18 81 11 115 -21z"/>
<path d="M2731 775 c-35 -49 -51 -56 -51 -25 0 11 -7 20 -15 20 -18 0 -21 -50
-3 -68 26 -26 57 -13 88 35 17 26 30 53 30 59 0 29 -19 21 -49 -21z"/>
<path d="M2787 763 c-14 -14 -6 -49 18 -77 31 -36 31 -36 1 -36 -18 0 -26 6
-28 22 -4 31 -28 35 -28 5 0 -43 78 -75 108 -45 18 18 15 33 -13 66 -14 17
-25 35 -25 42 0 18 24 6 35 -18 5 -12 15 -24 22 -26 19 -8 16 39 -3 58 -15 16
-75 22 -87 9z"/>
<path d="M2950 420 c0 -5 7 -10 15 -10 8 0 15 5 15 10 0 6 -7 10 -15 10 -8 0
-15 -4 -15 -10z"/>
<path d="M4290 1413 c-43 -28 -72 -57 -81 -80 l-8 -21 -38 19 c-51 26 -100 25
-108 -1 -9 -28 11 -50 44 -50 15 0 36 -6 46 -14 17 -12 15 -14 -25 -21 -51 -9
-86 -42 -100 -96 -12 -43 -1 -97 31 -161 10 -20 19 -40 19 -43 0 -3 -53 -5
-119 -5 -90 0 -121 -3 -130 -14 -7 -9 -11 -41 -9 -83 l3 -68 68 -3 67 -3 0
-89 0 -89 -67 -3 -68 -3 -5 -110 -5 -110 -138 -3 c-111 -2 -139 -5 -144 -17
-3 -9 0 -22 7 -30 11 -13 85 -15 541 -15 l529 0 0 145 0 145 -202 2 -203 3 0
85 0 85 203 3 202 2 0 40 c0 36 -3 40 -25 40 -16 0 -25 6 -25 15 0 9 9 15 25
15 21 0 25 5 25 30 l0 30 -90 0 -90 0 30 56 c53 101 31 219 -47 245 -28 9 -31
13 -23 29 15 28 12 97 -5 130 -18 34 -46 38 -85 13z m20 -133 c-7 -16 -18 -31
-26 -34 -23 -9 -17 57 9 90 l22 29 3 -29 c2 -15 -2 -41 -8 -56z m-99 -106 c38
-16 43 -16 75 0 47 22 90 20 115 -5 18 -18 21 -30 17 -80 -3 -48 -10 -65 -32
-88 -41 -43 -76 -54 -156 -49 -63 3 -73 7 -105 38 -59 57 -70 151 -22 185 28
19 57 19 108 -1z m-253 -306 c-3 -7 -15 -15 -29 -16 -13 -2 -28 -8 -33 -13
-17 -16 -26 -10 -26 16 0 23 4 25 46 25 32 0 44 -4 42 -12z m562 -2 c0 -33
-25 -36 -276 -34 l-249 3 -3 23 -3 22 265 0 c219 0 266 -2 266 -14z m-355
-186 l0 -85 -77 -3 -78 -3 0 91 0 91 78 -3 77 -3 0 -85z m-238 -172 c1 -13 -1
-18 -5 -11 -5 8 -13 9 -22 3 -12 -8 -12 -10 -1 -10 11 0 11 -3 1 -15 -10 -12
-9 -15 4 -15 14 0 15 -4 5 -21 -9 -17 -8 -20 3 -13 9 6 9 3 -2 -10 -8 -10 -15
-25 -15 -32 0 -8 -4 -15 -10 -16 -6 -2 -11 31 -13 80 l-3 82 28 0 c23 0 29 -5
30 -22z m118 14 c-3 -3 0 -11 7 -19 6 -8 11 -43 12 -78 l1 -65 -47 0 -48 0 0
69 c0 38 -3 77 -6 86 -6 14 0 16 40 14 25 -2 43 -5 41 -7z m445 -3 c0 10 3 11
13 2 8 -6 18 -7 22 -3 5 4 5 1 1 -5 -9 -16 -49 -10 -54 8 -3 11 -1 11 7 -1 8
-12 11 -12 11 -1z m39 -40 c-11 -20 -8 -54 6 -92 5 -12 3 -16 -7 -12 -8 3 -14
16 -14 28 1 17 -4 21 -21 20 -20 -2 -23 1 -22 35 l2 37 7 -35 c5 -22 8 -27 9
-13 0 12 11 29 23 37 29 21 31 20 17 -5z m-29 -95 c0 -8 -7 -14 -15 -14 -8 0
-15 9 -15 20 0 13 5 18 15 14 8 -4 15 -12 15 -20z"/>
<path d="M4367 1098 c-6 -48 -4 -53 18 -45 20 8 21 87 1 87 -8 0 -16 -16 -19
-42z"/>
<path d="M4000 460 c6 -11 12 -20 14 -20 2 0 2 9 -1 20 -3 11 -9 20 -15 20 -5
0 -4 -9 2 -20z"/>
<path d="M244 1220 c-65 -26 -84 -112 -35 -161 28 -28 81 -41 81 -19 0 6 -7
10 -15 10 -26 0 -65 47 -65 78 0 33 32 72 60 72 11 0 20 7 20 15 0 17 -14 18
-46 5z"/>
<path d="M342 1218 c5 -15 57 -18 61 -3 1 6 -13 11 -32 13 -24 3 -32 0 -29
-10z"/>
<path d="M450 1220 c0 -5 4 -10 9 -10 6 0 13 5 16 10 3 6 -1 10 -9 10 -9 0
-16 -4 -16 -10z"/>
<path d="M54 946 c-13 -22 -15 -57 -12 -258 3 -243 5 -255 51 -305 l20 -23
-56 0 c-57 0 -57 0 -57 -30 l0 -30 464 0 c400 0 465 2 476 15 10 12 10 18 0
30 -10 12 -45 15 -191 15 -99 0 -179 4 -179 8 0 5 10 17 21 28 12 10 27 32 34
47 8 19 33 40 71 61 65 36 82 66 83 141 2 89 -36 144 -117 169 -19 7 -22 14
-22 65 0 94 9 91 -303 91 l-267 0 -16 -24z m526 -71 c0 -42 9 -41 -312 -37
l-168 2 0 30 0 30 240 0 240 0 0 -25z m-239 -107 c2 -80 -3 -103 -29 -130 -38
-37 -79 -43 -120 -18 -39 24 -54 59 -48 114 2 23 5 47 5 54 1 9 27 12 96 12
l95 0 1 -32z m353 -39 c31 -36 41 -69 32 -105 -7 -28 -57 -84 -75 -84 -7 0
-11 38 -11 110 0 123 8 134 54 79z"/>
<path d="M1005 350 c-11 -17 5 -51 23 -48 23 4 23 52 0 56 -9 2 -19 -2 -23 -8z"/>
</g>
</svg>
